# xmcd CD database file
#
# Track frame offsets:
#	150
#	12244
#	30009
#	44194
#	59972
#	77713
#	94661
#	108257
#	123193
#	142576
#	158835
#
# Disc length: 2358 seconds
#
# Revision: 0
# Processed by: cddbd v1.5.1PL2 Copyright (c) Steve Scherf et al.
# Submitted via: CDex 1.51
#
DISCID=8309340b
DTITLE=Arizona Flame - Complete
DYEAR=1900
DGENRE=Country
TTITLE0=Should've asked her faster
TTITLE1=Little rock
TTITLE2=Country club
TTITLE3=If tomorrow never comes
TTITLE4=Seminole wind
TTITLE5=Forever in mind
TTITLE6=Here comes my baby
TTITLE7=Sweet Caroline
TTITLE8=Murder on Music Row
TTITLE9=California blue
TTITLE10=Mr Man in the moon
EXTD=
EXTT0=
EXTT1=
EXTT2=
EXTT3=
EXTT4=
EXTT5=
EXTT6=
EXTT7=
EXTT8=
EXTT9=
EXTT10=
PLAYORDER=
